<svg xmlns="http://www.w3.org/2000/svg" width="164" height="81" viewBox="0 0 164 81"><g><g><path fill="#0090df" d="M153.138 62.875c3.852-5.218 6.178-11.643 6.178-18.605 0-17.335-14.107-31.434-31.429-31.434h-.017v30.756l9.877-13.456h5.91l-10.486 14.082 19.967 18.657zM163.85 44.27c0 8.169-2.758 15.688-7.369 21.755l7.369 6.89h-6.93l-3.533-3.323c-6.514 6.576-15.529 10.648-25.5 10.648-14.84 0-27.593-9.001-33.117-21.877h5.05c5.196 10.26 15.822 17.331 28.067 17.331 8.661 0 16.52-3.546 22.217-9.242L127.87 45.355v8.247h-4.817V13.215c-10.177 1.59-18.752 8.076-23.234 16.93H94.77c4.912-11.419 15.546-19.821 28.283-21.54V0h4.817v8.277h.017c19.83 0 35.963 16.137 35.963 35.993zm-69.83-2.104c0-.978.138-2.14.138-2.14h-.138l-4.8 13.4h-3.904l-4.791-13.4h-.139s.139 1.162.139 2.14v11.26h-5.086V35.09h7.343l4.421 12.47h.147l4.37-12.47h7.384v18.335H94.02zm20.26 2.387c-.516.371-1.344.716-3.404.988-1.913.318-3.43.792-3.43 2.761 0 1.75 1.371 2.254 2.353 2.254 2.197 0 4.48-1.409 4.48-3.637zm-2.938-2.27c2.145-.18 2.938-.711 2.938-1.608 0-2.037-2.024-2.154-3.31-2.154-2.007 0-2.654.94-2.946 1.849h-4.895c.844-4.976 4.714-5.7 8.428-5.7 2.723 0 7.635.796 7.635 5.316v9.924c0 2.171.517 2.645 1.103 2.839v.754h-5.403c-.302-.879-.371-1.146-.466-2.197-1.137 1.142-2.775 2.667-6.187 2.667-2.887 0-5.808-1.556-5.808-5.343 0-4.253 4.128-5.977 8.91-6.347zM66.9 44.726c0-2.917-.82-5.873-4.145-5.873-3.06 0-4.12 2.719-4.12 5.602 0 2.206.896 5.597 4 5.597 3.076 0 4.265-2.58 4.265-5.326zm4.938-.517c0 4.998-2.302 9.764-7.782 9.764-3.378 0-4.55-1.848-5.145-2.823l-.104-.03v9.769h-4.8V35.148h4.628v2.671h.086c.863-1.44 2.215-3.15 5.438-3.15 4.076 0 7.679 3.18 7.679 9.54zm-53.543 1.852c2.845 0 7.309-1 7.309-6.045 0-5.11-4.464-6.209-7.309-6.209zm-5.35-12.254c-2.862 0-7.344 1.1-7.344 6.21 0 5.045 4.482 6.044 7.343 6.044zm18.286 6.21c0 8.199-8.136 10.569-12.936 10.569v2.913h-5.35v-2.913C8.144 50.586 0 48.216 0 40.016 0 31.813 8.144 29.27 12.944 29.27V26.52h5.351v2.749c4.8 0 12.936 2.543 12.936 10.746zm13.9 4.536c-.5.371-1.361.716-3.412.988-1.896.318-3.448.792-3.448 2.761 0 1.75 1.38 2.254 2.362 2.254 2.197 0 4.498-1.409 4.498-3.637zm4.904 5.357c0 2.171.508 2.645 1.12 2.839v.754h-5.42c-.293-.879-.354-1.146-.466-2.197-1.137 1.142-2.766 2.667-6.204 2.667-2.879 0-5.784-1.556-5.784-5.343 0-4.253 4.094-5.977 8.911-6.347 2.146-.18 2.94-.711 2.94-1.608 0-2.037-2.035-2.154-3.319-2.154-1.99 0-2.654.94-2.938 1.849h-4.869c.801-4.976 4.661-5.7 8.403-5.7 2.722 0 7.626.796 7.626 5.316v9.924z"/></g></g></svg>