<svg xmlns="http://www.w3.org/2000/svg" width="1917" height="150" viewBox="0 0 1917 150"><g><g><path fill="#c1c1c1" d="M1914.016 9.775h-7.079c-4.31 0-7.435 2.056-9.375 6.169-1.94 4.112-2.911 10.738-2.911 19.876 0 8.601.956 15.08 2.867 19.433 1.91 4.355 4.71 6.532 8.395 6.532h8.103zm-10.18 59.106l-11.437 51.365h-3.598l12.022-52.978c-2.983-1.613-5.295-5.134-6.933-10.563-1.638-5.43-2.457-12.257-2.457-20.482 0-22.577 5.13-33.866 15.387-33.866H1917v117.889h-2.984V68.88zm-19.833-66.524l-.965 42.575h-1.785l-.965-42.575zm-36.127 59.75v50.881h10.063c7.918 0 11.877-8.87 11.877-26.61 0-16.18-4.174-24.27-12.52-24.27zm0-7.257h9.42c4.017 0 6.937-1.841 8.76-5.523 1.824-3.683 2.736-9.448 2.736-17.297 0-7.848-1.03-13.546-3.087-17.094-2.057-3.548-5.123-5.322-9.2-5.322h-8.629zm-2.984-52.493h11.73c5.286 0 9.166 2.472 11.643 7.418 2.477 4.946 3.715 12.418 3.715 22.417 0 6.827-.755 12.512-2.267 17.054-1.511 4.543-3.72 7.459-6.626 8.749v.484c3.413 1.397 5.924 4.368 7.533 8.91s2.413 10.872 2.413 18.99c0 10.859-1.306 19.218-3.92 25.077-2.613 5.86-6.318 8.79-11.116 8.79h-13.105zm-44.815 58.783c0 16.88 1.365 29.929 4.096 39.148 2.73 9.22 6.65 13.83 11.76 13.83 5.148 0 9.082-4.57 11.803-13.709 2.72-9.138 4.08-22.228 4.08-39.27 0-16.986-1.36-30.009-4.08-39.067-2.72-9.058-6.636-13.587-11.745-13.587-5.09 0-9.015 4.57-11.774 13.708-2.76 9.139-4.14 22.12-4.14 38.947zm34.986 0c0 18.707-1.696 33.504-5.09 44.39-3.393 10.885-8.073 16.328-14.04 16.328-5.949 0-10.62-5.443-14.013-16.328-3.393-10.886-5.09-25.737-5.09-44.551 0-18.762 1.712-33.531 5.134-44.31 3.423-10.778 8.098-16.167 14.027-16.167 5.967 0 10.638 5.416 14.012 16.248 3.374 10.832 5.06 25.629 5.06 44.39zm-68.012 3.306h5.88c4.817 0 8.298-2.19 10.443-6.572 2.145-4.381 3.218-11.49 3.218-21.328 0-9.085-1.014-15.818-3.042-20.2-2.029-4.38-5.168-6.571-9.42-6.571h-7.079zm22.759-28.223c0 11.397-1.404 20.132-4.213 26.207-2.808 6.074-6.786 9.112-11.935 9.112h-6.61v48.704h-2.985V2.356h10.473c10.18 0 15.27 11.29 15.27 33.867zm-70.558 24.917c0 16.88 1.366 29.929 4.096 39.148 2.73 9.22 6.65 13.83 11.76 13.83 5.148 0 9.082-4.57 11.803-13.709 2.72-9.138 4.08-22.228 4.08-39.27 0-16.986-1.36-30.009-4.08-39.067-2.72-9.058-6.636-13.587-11.745-13.587-5.09 0-9.015 4.57-11.774 13.708-2.76 9.139-4.14 22.12-4.14 38.947zm34.986 0c0 18.707-1.696 33.504-5.09 44.39-3.393 10.885-8.073 16.328-14.04 16.328-5.949 0-10.62-5.443-14.013-16.328-3.393-10.886-5.09-25.737-5.09-44.551 0-18.762 1.712-33.531 5.134-44.31 3.423-10.778 8.098-16.167 14.027-16.167 5.967 0 10.638 5.416 14.012 16.248 3.374 10.832 5.06 25.629 5.06 44.39zm-51.22 51.365V10.098h-12.58c-.467 16.933-1.696 35.183-3.685 54.751-1.99 19.568-4.261 35.453-6.816 47.656zm7.43 37.495h-2.867v-29.754h-31.154V150h-2.896v-37.495h3.071c2.886-13.816 5.422-31.354 7.606-52.615 2.184-21.26 3.403-40.439 3.656-57.533h18.195v110.148h4.388zm-41.54-120.066c0 15.374-2.954 24.836-8.863 28.384v.483c6.475 3.817 9.712 13.386 9.712 28.707 0 10.805-1.38 19.231-4.14 25.279-2.759 6.047-6.654 9.071-11.686 9.071-4.72 0-8.688-2.311-11.905-6.934v-8.387c1.852 2.473 3.832 4.382 5.938 5.726 2.106 1.344 4.095 2.015 5.967 2.015 3.9 0 6.977-2.324 9.23-6.974 2.252-4.65 3.378-11.168 3.378-19.555 0-8.17-1.097-14.353-3.29-18.546-2.195-4.193-5.476-6.29-9.844-6.29h-6.348v-7.74h6.582c4.134 0 7.186-2.15 9.156-6.451 1.97-4.3 2.954-10.402 2.954-18.304 0-6.72-.902-12.096-2.705-16.127-1.804-4.032-4.16-6.048-7.065-6.048-2.165 0-4.154.847-5.968 2.54-1.813 1.693-3.773 4.61-5.88 8.749l-1.696-6.451c3.94-8.279 8.454-12.418 13.544-12.418 3.998 0 7.152 2.634 9.463 7.902 2.311 5.269 3.467 12.391 3.467 21.369zm-83.603 31.206c0 16.88 1.365 29.929 4.095 39.148 2.73 9.22 6.65 13.83 11.76 13.83 5.148 0 9.083-4.57 11.803-13.709 2.72-9.138 4.08-22.228 4.08-39.27 0-16.986-1.36-30.009-4.08-39.067-2.72-9.058-6.635-13.587-11.745-13.587-5.09 0-9.015 4.57-11.774 13.708-2.76 9.139-4.14 22.12-4.14 38.947zm34.986 0c0 18.707-1.697 33.504-5.09 44.39-3.393 10.885-8.074 16.328-14.041 16.328-5.948 0-10.619-5.443-14.012-16.328-3.394-10.886-5.09-25.737-5.09-44.551 0-18.762 1.71-33.531 5.134-44.31 3.422-10.778 8.098-16.167 14.026-16.167 5.968 0 10.638 5.416 14.012 16.248 3.374 10.832 5.06 25.629 5.06 44.39zm-63.04 59.106h-2.983V2.356h23.431v7.58h-20.447zm-47.798-59.106c0 16.88 1.365 29.929 4.095 39.148 2.73 9.22 6.65 13.83 11.76 13.83 5.148 0 9.083-4.57 11.803-13.709 2.72-9.138 4.08-22.228 4.08-39.27 0-16.986-1.36-30.009-4.08-39.067-2.72-9.058-6.635-13.587-11.745-13.587-5.09 0-9.015 4.57-11.774 13.708-2.76 9.139-4.14 22.12-4.14 38.947zm34.986 0c0 18.707-1.697 33.504-5.09 44.39-3.393 10.885-8.074 16.328-14.041 16.328-5.948 0-10.619-5.443-14.012-16.328-3.394-10.886-5.09-25.737-5.09-44.551 0-18.762 1.711-33.531 5.134-44.31 3.422-10.778 8.098-16.167 14.026-16.167 5.968 0 10.638 5.416 14.012 16.248 3.374 10.832 5.06 25.629 5.06 44.39zm-48.062 59.106h-48.15V2.356h2.984v110.149h19.6V2.357h2.983v110.148h19.6V2.357h2.983zm-79.801-49.027h15.299l-5.821-42.495c-.488-3.333-1.073-7.956-1.756-13.869-.526 5.16-1.101 9.838-1.725 14.03zm16.294 7.419h-17.377l-5.967 41.608h-3.306l17.2-118.373h1.902l16.85 118.373h-3.364zm-55.17-16.53v50.88h10.062c7.918 0 11.877-8.87 11.877-26.61 0-16.18-4.174-24.27-12.52-24.27zm0-7.258h9.418c4.018 0 6.938-1.841 8.762-5.523 1.823-3.683 2.735-9.448 2.735-17.297 0-7.848-1.03-13.546-3.087-17.094-2.057-3.548-5.124-5.322-9.2-5.322h-8.629zm-2.985-52.493h11.73c5.286 0 9.166 2.472 11.643 7.418 2.477 4.946 3.715 12.418 3.715 22.417 0 6.827-.755 12.512-2.267 17.054-1.511 4.543-3.72 7.459-6.626 8.749v.484c3.413 1.397 5.924 4.368 7.533 8.91s2.413 10.872 2.413 18.99c0 10.859-1.306 19.218-3.92 25.077-2.613 5.86-6.318 8.79-11.116 8.79h-13.105zm-30.656 7.418h-7.08c-4.31 0-7.435 2.056-9.375 6.169-1.94 4.112-2.91 10.738-2.91 19.876 0 8.601.955 15.08 2.866 19.433 1.911 4.355 4.71 6.532 8.396 6.532h8.103zm-10.18 59.106l-11.438 51.365h-3.598l12.023-52.978c-2.984-1.613-5.295-5.134-6.933-10.563-1.638-5.43-2.457-12.257-2.457-20.482 0-22.577 5.128-33.866 15.387-33.866h10.18v117.889h-2.984V68.88zm-21.998 51.365h-3.013V10.098h-15.504c-.8 18.223-1.648 35.506-2.545 51.848s-1.653 27.98-2.267 34.915c-.614 6.935-1.258 12.082-1.93 15.442-.674 3.36-1.488 5.833-2.443 7.418-.956 1.586-2.165 2.38-3.628 2.38-1.306 0-2.447-.673-3.422-2.017v-7.418c1.19 1.182 2.291 1.774 3.305 1.774 1.697 0 3.018-2.903 3.964-8.709.946-5.806 1.98-18.331 3.1-37.576 1.122-19.245 2.239-41.178 3.35-65.798h21.033zm-43.967-7.741V10.098h-12.579c-.468 16.933-1.696 35.183-3.685 54.751-1.99 19.568-4.262 35.453-6.816 47.656zm7.43 37.495h-2.867v-29.754h-31.154V150h-2.896v-37.495h3.072c2.886-13.816 5.421-31.354 7.605-52.615 2.185-21.26 3.404-40.439 3.657-57.533h18.195v110.148h4.388zm-79.713-29.754l-15.943-108.858h-.234c.156 6.666.234 13.493.234 20.481v88.377h-2.867V2.356h4.622l15.153 103.698h.176l15.153-103.697h4.504v117.889h-3.013V30.9c0-6.235.117-12.686.351-19.352h-.234l-16 108.697zm-62.016-117.89h2.867v77.088c0 5.483-.078 14.676-.234 27.577h.176l25.274-104.664h3.013v117.889h-2.896V43.642c0-8.709.127-18.116.38-28.223h-.234L1136.6 120.246h-2.984zm-34.576 59.751v50.881h10.063c7.917 0 11.876-8.87 11.876-26.61 0-16.18-4.173-24.27-12.52-24.27zm0-7.257h9.419c4.017 0 6.938-1.841 8.761-5.523 1.824-3.683 2.735-9.448 2.735-17.297 0-7.848-1.028-13.546-3.086-17.094-2.057-3.548-5.124-5.322-9.2-5.322h-8.63zm-2.984-52.493h11.73c5.285 0 9.166 2.472 11.643 7.418 2.477 4.946 3.715 12.418 3.715 22.417 0 6.827-.756 12.512-2.267 17.054-1.512 4.543-3.72 7.459-6.626 8.749v.484c3.413 1.397 5.924 4.368 7.533 8.91 1.608 4.542 2.413 10.872 2.413 18.99 0 10.859-1.307 19.218-3.92 25.077-2.613 5.86-6.318 8.79-11.116 8.79h-13.105zm-43.206 0h2.867v77.087c0 5.483-.078 14.676-.234 27.577h.175l25.274-104.664h3.013v117.889h-2.896V43.642c0-8.709.127-18.116.38-28.223h-.233l-25.362 104.827h-2.984zm-12.11 117.889h-3.014V10.098h-15.504c-.8 18.223-1.647 35.506-2.545 51.848-.897 16.342-1.652 27.98-2.267 34.915-.614 6.935-1.257 12.082-1.93 15.442-.673 3.36-1.487 5.833-2.443 7.418-.955 1.586-2.164 2.38-3.627 2.38-1.307 0-2.448-.673-3.423-2.017v-7.418c1.19 1.182 2.292 1.774 3.306 1.774 1.697 0 3.018-2.903 3.964-8.709.945-5.806 1.979-18.331 3.1-37.576 1.122-19.245 2.238-41.178 3.35-65.798h21.032zm-43.967-7.741V10.098h-12.579c-.468 16.933-1.697 35.183-3.686 54.751-1.989 19.568-4.26 35.453-6.816 47.656zm7.43 37.495h-2.867v-29.754h-31.154V150h-2.896v-37.495h3.072c2.886-13.816 5.421-31.354 7.605-52.615 2.184-21.26 3.403-40.439 3.657-57.533h18.195v110.148h4.388zm-46.366-29.754V2.356h2.984v117.89zm-6.055 0h-4.066l-21.15-60.074v60.074h-2.983V2.356h2.983v57.09l20.565-57.09h3.95l-20.682 57.09zm-40.31 0h-48.15V2.356h2.984v110.149h19.6V2.357h2.983v110.148h19.6V2.357h2.983zM804.553 2.356h2.867v77.088c0 5.483-.078 14.676-.234 27.577h.175L832.635 2.357h3.013v117.889h-2.896V43.642c0-8.709.127-18.116.38-28.223h-.233l-25.362 104.827h-2.984zm-20.243 117.89h-3.013V10.098h-13.895V2.357h30.803v7.74H784.31zm-44.347 1.612c-2.32 0-4.193-.806-5.616-2.419v-8.305c1.677 1.989 3.452 2.983 5.324 2.983 1.404 0 2.608-.658 3.612-1.975 1.005-1.317 1.936-3.44 2.794-6.37.858-2.93 1.901-7.836 3.13-14.717L732.182 2.357h3.54l13.075 68.862c.683 3.71 1.297 7.553 1.843 11.531h.117l.732-4.919 12.286-75.474h3.335L753.39 85.25a1167.564 1167.564 0 0 1-2.516 14.716c-.8 4.488-1.687 8.345-2.662 11.57-.975 3.226-2.116 5.753-3.422 7.58-1.307 1.828-2.916 2.742-4.827 2.742zm-34.693-8.87h8.746c3.842 0 6.69-2.137 8.542-6.41 1.853-4.274 2.779-11.007 2.779-20.2 0-8.87-.936-15.213-2.808-19.03-1.873-3.816-4.905-5.724-9.098-5.724h-8.161zm8.57-58.622c4.915 0 8.6 2.567 11.058 7.701 2.457 5.134 3.686 13.238 3.686 24.312 0 10.859-1.214 19.218-3.642 25.077-2.428 5.86-5.904 8.79-10.429 8.79h-12.227V2.356h24.016v7.742H705.27v44.268zm-36.8 65.88h-23.372V2.356h23.373v7.58h-20.39v44.592H675.9v7.58h-19.248v50.558h20.389zm-57.86-60.074L601.861 2.357h3.715l17.2 57.09V2.356h2.984v57.09l17.2-57.09h3.716L629.3 59.607l18.312 60.639h-3.95l-17.902-59.751v59.75h-2.984v-59.75l-17.932 59.75h-3.949zm-57.043.968c0 16.88 1.365 29.929 4.095 39.148 2.73 9.22 6.65 13.83 11.76 13.83 5.148 0 9.082-4.57 11.803-13.709 2.72-9.138 4.08-22.228 4.08-39.27 0-16.986-1.36-30.009-4.08-39.067-2.72-9.058-6.636-13.587-11.745-13.587-5.09 0-9.015 4.57-11.774 13.708-2.76 9.139-4.14 22.12-4.14 38.947zm34.986 0c0 18.707-1.697 33.504-5.09 44.39-3.393 10.885-8.074 16.328-14.041 16.328-5.948 0-10.62-5.443-14.012-16.328-3.394-10.886-5.09-25.737-5.09-44.551 0-18.762 1.71-33.531 5.133-44.31C567.446 5.891 572.122.502 578.05.502c5.968 0 10.638 5.416 14.012 16.248 3.374 10.832 5.06 25.629 5.06 44.39zm-68.832 59.106L512.35 11.388h-.234c.156 6.666.234 13.493.234 20.481v88.377h-2.867V2.356h4.622l15.153 103.698h.175L544.585 2.357h4.505v117.889h-3.013V30.9c0-6.235.117-12.686.351-19.352h-.234l-16.001 108.697zM478.825 9.775h-7.079c-4.31 0-7.435 2.056-9.375 6.169-1.94 4.112-2.911 10.738-2.911 19.876 0 8.601.956 15.08 2.867 19.433 1.91 4.355 4.71 6.532 8.395 6.532h8.103zm-10.18 59.106l-11.437 51.365h-3.598l12.022-52.978c-2.983-1.613-5.294-5.134-6.933-10.563-1.638-5.43-2.457-12.257-2.457-20.482 0-22.577 5.13-33.866 15.387-33.866h10.18v117.889h-2.984V68.88zm-21.998 51.365h-3.013V62.269h-24.981v57.977h-2.984V2.356h2.984V54.69h24.981V2.357h3.013zm-43.089 0h-3.013V62.269h-24.981v57.977h-2.984V2.356h2.984V54.69h24.981V2.357h3.013zm-62.63-49.027h15.3l-5.822-42.495c-.487-3.333-1.072-7.956-1.755-13.869-.526 5.16-1.102 9.838-1.726 14.03zm16.294 7.419h-17.376l-5.967 41.608h-3.306l17.2-118.373h1.902l16.85 118.373h-3.365zm-55.17-16.53v50.88h10.063c7.917 0 11.876-8.87 11.876-26.61 0-16.18-4.173-24.27-12.52-24.27zm0-7.258h9.42c4.016 0 6.937-1.841 8.76-5.523 1.824-3.683 2.735-9.448 2.735-17.297 0-7.848-1.028-13.546-3.086-17.094-2.057-3.548-5.124-5.322-9.2-5.322h-8.63zm-2.984-52.493h11.73c5.285 0 9.166 2.472 11.643 7.418 2.477 4.946 3.715 12.418 3.715 22.417 0 6.827-.756 12.512-2.267 17.054-1.512 4.543-3.72 7.459-6.626 8.749v.484c3.413 1.397 5.924 4.368 7.533 8.91s2.413 10.872 2.413 18.99c0 10.859-1.307 19.218-3.92 25.077-2.613 5.86-6.318 8.79-11.116 8.79h-13.105zm-33.202 119.501c-2.32 0-4.193-.806-5.616-2.419v-8.305c1.677 1.989 3.452 2.983 5.324 2.983 1.404 0 2.608-.658 3.612-1.975 1.005-1.317 1.936-3.44 2.794-6.37.858-2.93 1.902-7.836 3.13-14.717L258.085 2.357h3.54L274.7 71.219a256.46 256.46 0 0 1 1.843 11.531h.117l.73-4.919 12.287-75.474h3.335l-13.72 82.893a1168.137 1168.137 0 0 1-2.515 14.716c-.8 4.488-1.687 8.345-2.662 11.57-.976 3.226-2.116 5.753-3.423 7.58-1.307 1.828-2.916 2.742-4.827 2.742zm-8.073-1.612h-4.067l-21.15-60.074v60.074h-2.983V2.356h2.984v57.09l20.564-57.09h3.95l-20.682 57.09zm-43.294 0V2.356h2.984v117.89zm-12.11 0h-3.014V10.098h-15.504c-.8 18.223-1.648 35.506-2.545 51.848s-1.652 27.98-2.267 34.915c-.614 6.935-1.258 12.082-1.93 15.442-.673 3.36-1.487 5.833-2.443 7.418-.956 1.586-2.165 2.38-3.627 2.38-1.307 0-2.448-.673-3.423-2.017v-7.418c1.19 1.182 2.292 1.774 3.306 1.774 1.696 0 3.018-2.903 3.963-8.709.946-5.806 1.98-18.331 3.101-37.576 1.122-19.245 2.238-41.178 3.35-65.798h21.032zM128.875 61.14c0 16.88 1.366 29.929 4.096 39.148 2.73 9.22 6.65 13.83 11.76 13.83 5.148 0 9.082-4.57 11.803-13.709 2.72-9.138 4.08-22.228 4.08-39.27 0-16.986-1.36-30.009-4.08-39.067-2.72-9.058-6.636-13.587-11.745-13.587-5.09 0-9.015 4.57-11.774 13.708-2.76 9.139-4.14 22.12-4.14 38.947zm34.987 0c0 18.707-1.697 33.504-5.09 44.39-3.394 10.885-8.074 16.328-14.042 16.328-5.948 0-10.618-5.443-14.012-16.328-3.393-10.886-5.09-25.737-5.09-44.551 0-18.762 1.712-33.531 5.134-44.31C134.186 5.891 138.861.502 144.79.502c5.967 0 10.638 5.416 14.012 16.248 3.374 10.832 5.06 25.629 5.06 44.39zM95.03 120.246L79.088 11.388h-.234c.156 6.666.234 13.493.234 20.481v88.377h-2.866V2.356h4.622l15.153 103.698h.175L111.325 2.357h4.505v117.889h-3.013V30.9c0-6.235.117-12.686.35-19.352h-.233L96.933 120.246zm-50.46-49.027H59.87l-5.822-42.495c-.487-3.333-1.072-7.956-1.755-13.869-.526 5.16-1.102 9.838-1.726 14.03zm16.293 7.419H43.488l-5.967 41.608h-3.306l17.2-118.373h1.902l16.85 118.373h-3.365zM21.314 8.082c-5.362 0-9.584 4.73-12.666 14.192-3.081 9.46-4.622 22.416-4.622 38.866 0 16.826 1.453 29.889 4.359 39.189 2.906 9.3 7.06 13.95 12.462 13.95 3.588 0 6.884-1.264 9.887-3.79v7.257c-2.828 2.741-6.358 4.112-10.59 4.112-6.006 0-10.735-5.349-14.187-16.046C2.505 95.114.779 80.17.779 60.978c0-11.987.824-22.55 2.472-31.69C4.9 20.15 7.268 13.096 10.36 8.123 13.45 3.149 17.044.663 21.14.663c4.172 0 7.907 2.15 11.203 6.451l-1.2 7.419c-3.12-4.301-6.396-6.451-9.828-6.451z"/></g></g></svg>