<svg xmlns="http://www.w3.org/2000/svg" width="145" height="80" viewBox="0 0 145 80"><defs><mask id="258zb" width="2" height="2" x="-1" y="-1"><path fill="#fff" d="M5 2h135v70H5z"/><path d="M5.287 2l5.262 69.273h123.925L140 2z"/></mask><filter id="258za" width="167" height="105" x="-11" y="-14" filterUnits="userSpaceOnUse"><feOffset dy="3" in="SourceGraphic" result="FeOffset1154Out"/><feGaussianBlur in="FeOffset1154Out" result="FeGaussianBlur1155Out" stdDeviation="2.4 2.4"/></filter></defs><g><g><g filter="url(#258za)"><path fill="none" d="M5.287 2l5.262 69.273h123.925L140 2z" mask="url(&quot;#258zb&quot;)"/><path fill="#989898" d="M5.287 2l5.262 69.273h123.925L140 2z"/></g><path fill="#fff" d="M5.287 2l5.262 69.273h123.925L140 2z"/></g><g><g><g><path fill="#90999d" d="M123.884 56.376c-.115-.258-.275-.459-.606-.49-.326-.03-.554.112-.762.312-.285.274-.6.284-.955.176a30.312 30.312 0 0 0-1.706-.468c-1.312-.314-2.64-.34-3.974-.156-.26.036-.52.08-.783.121v-4.455a.967.967 0 0 0-1.48-.818c-1.411.87-3.01 2.949-3.311 5.453l-79.217.561v.652l79.217.449c.301 2.503 1.9 4.581 3.312 5.45.646.399 1.48-.057 1.48-.817v-4.452c.084.012.17.02.255.038 1.026.206 2.063.237 3.101.147 1.061-.09 2.091-.324 3.09-.696.37-.138.732-.122 1.01.222a.798.798 0 0 0 .175.147c.452.32 1.011.137 1.166-.395.096-.324.128-.662-.012-.98z"/></g></g><g><g><g><g><path fill="#d60812" d="M33.968 45.68V41.3h1.668c1.734 0 2.668.555 2.668 2.068 0 1.512-.867 2.312-2.668 2.312zm-3.27 7.517h3.27v-4.914h1.868c3.069 0 5.67-1.513 5.67-4.915 0-3.514-2.534-4.67-5.67-4.67h-5.138z"/></g><g><path fill="#d60812" d="M51.005 49.883c-.779.601-1.624 1.045-2.602 1.045-.934 0-1.535-.333-1.535-1.045 0-.955.89-1.645 4.137-1.823v1.823zm-3.647 3.581c1.423 0 2.802-.667 3.914-1.513h.089l.244 1.246h2.67v-6.316c0-3.38-1.891-4.982-4.983-4.982-1.89 0-3.647.623-5.159 1.49l1.156 2.136c1.246-.623 2.29-1.024 3.358-1.024 1.49 0 2.247.6 2.358 1.602-5.226.31-7.273 1.556-7.273 4.025 0 1.868 1.402 3.336 3.626 3.336z"/></g><g><path fill="#d60812" d="M57.323 42.166h10.141v11.031h-3.27v-8.473h-3.602v8.473h-3.27z"/></g><g><path fill="#d60812" d="M76.74 40.432c1.268 0 2.18-.779 2.18-1.98 0-1.2-.912-2.046-2.18-2.046-1.268 0-2.18.845-2.18 2.047 0 1.2.912 1.979 2.18 1.979zm-1.49 12.765h3.269v-11.03h-7.695v2.557h4.426z"/></g><g><path fill="#d60812" d="M91.353 47.548c0 2.269-.956 3.247-2.18 3.247-.555 0-1.267-.2-1.89-.734v-4.47c.69-.711 1.335-1.023 2.046-1.023 1.38 0 2.024 1.001 2.024 2.98zm-7.34 9.741h3.27v-3.225l-.156-1.8h.09c.778.778 1.734 1.2 2.713 1.2 2.469 0 4.782-2.18 4.782-5.96 0-3.403-1.668-5.605-4.427-5.605-1.178 0-2.402.579-3.29 1.38h-.068l-.244-1.113h-2.67z"/></g><g><path fill="#d60812" d="M104.388 49.883c-.778.601-1.624 1.045-2.602 1.045-.935 0-1.535-.333-1.535-1.045 0-.955.89-1.645 4.137-1.823v1.823zm-7.273.245c0 1.868 1.401 3.336 3.625 3.336 1.424 0 2.802-.667 3.914-1.513h.09l.244 1.246h2.668v-6.316c0-3.38-1.89-4.982-4.98-4.982-1.892 0-3.648.623-5.16 1.49l1.156 2.136c1.245-.623 2.29-1.024 3.358-1.024 1.49 0 2.246.6 2.358 1.602-5.227.31-7.273 1.556-7.273 4.025z"/></g></g></g></g></g></g></svg>