<svg xmlns="http://www.w3.org/2000/svg" width="44" height="26" viewBox="0 0 44 26"><g><g><path fill="#f29100" d="M.355 14.193c.233.525.563.929 1.235.989.663.058 1.123-.232 1.547-.643.576-.557 1.212-.581 1.937-.367 1.15.34 2.303.663 3.47.935 2.67.623 5.367.659 8.075.273.527-.076 1.056-.166 1.59-.254l.048 9.052c.008 1.543 1.705 2.462 3.015 1.645 2.86-1.783 6.084-6.023 6.67-11.114l15.805-1.287-.007-1.323-15.816-.765c-.639-5.083-3.909-9.29-6.787-11.04C19.82-.51 18.132.428 18.14 1.97l.048 9.046c-.174-.023-.348-.041-.52-.076-2.089-.407-4.195-.458-6.304-.265a23.737 23.737 0 0 0-6.27 1.448c-.748.283-1.483.257-2.053-.441-.094-.118-.229-.21-.357-.298-.922-.647-2.057-.266-2.366.815-.19.66-.252 1.346.037 1.993z"/></g></g></svg>