<svg xmlns="http://www.w3.org/2000/svg" width="1650" height="656" viewBox="0 0 1650 656"><defs><clipPath id="kpjva"><path fill="#fff" d="M136.88 635.074V60.926h421.24v574.148zm418.264-9.193c1.061-1.834 1.558-3.693.281-5.833-1.262-2.104-3.123-2.854-5.268-3.23-2.912-.514-4.36-2.362-5.29-4.994-1.47-4.17-3.005-8.317-4.719-12.392-3.916-9.324-9.644-17.463-16.661-24.718-1.365-1.41-2.78-2.797-4.2-4.202l26.944-19.734c4.594-3.364 3.667-10.425-1.608-12.57-11.515-4.684-31.167-5.143-47.648 4.125L142.837 65.928l-3.936 2.884 348.03 480.879c-13.806 12.912-19.294 31.784-18.299 44.173.453 5.676 6.905 8.69 11.499 5.326l26.925-19.72c.308.57.63 1.129.899 1.716 3.306 7.123 7.711 13.526 12.852 19.411 5.246 6.012 11.222 11.204 17.896 15.6 2.466 1.625 3.978 3.876 3.126 7.089-.149.536-.128 1.139-.117 1.713.063 4.155 3.66 6.722 7.554 5.306 2.387-.859 4.569-2.16 5.878-4.424z"/></clipPath><clipPath id="kpjvb"><path fill="#fff" d="M647 654.032V35.968h343v618.064zM977.082 37.43c-2.112-.17-4.004.18-5.387 2.253-1.358 2.043-1.235 4.047-.652 6.144.787 2.852-.26 4.953-2.236 6.924-3.133 3.12-6.218 6.288-9.16 9.587-6.737 7.544-11.622 16.215-15.157 25.669-.687 1.839-1.331 3.711-1.99 5.597L913.102 77.76c-5.012-2.702-10.989 1.17-10.658 6.855.72 12.41 8.753 30.352 24.205 41.248L648.716 650.39l4.295 2.315L937.61 131.769c17.594 6.915 36.992 3.76 47.75-2.465 4.93-2.848 4.879-9.97-.133-12.67l-29.38-15.836c.382-.523.749-1.054 1.164-1.55 5.01-6.046 8.898-12.775 12.002-19.948 3.173-7.32 5.293-14.947 6.393-22.863.407-2.925 1.79-5.258 5.057-5.87.547-.096 1.083-.374 1.597-.63 3.724-1.843 4.496-6.193 1.544-9.101-1.802-1.787-3.914-3.197-6.521-3.406z"/></clipPath><clipPath id="kpjvc"><path fill="#fff" d="M1130 651.053V2.947h282v648.106zm266.426-3.018c1.482-1.514 2.423-3.193 1.715-5.583-.702-2.35-2.319-3.537-4.304-4.432-2.695-1.22-3.64-3.368-3.89-6.147-.392-4.406-.853-8.803-1.506-13.176-1.486-10.003-5.022-19.307-10.025-28.072-.974-1.704-2-3.397-3.03-5.11l30.99-12.453c5.284-2.123 6.132-9.193 1.552-12.576-9.998-7.389-28.925-12.697-47.187-7.795L1135.515 3.466l-4.528 1.82 218.2 552.048c-16.57 9.094-26.557 26.02-28.66 38.271-.966 5.612 4.54 10.13 9.823 8.006l30.968-12.443c.16.626.332 1.249.448 1.884 1.44 7.72 4.123 15.013 7.648 21.989 3.595 7.122 8.1 13.632 13.479 19.542 1.987 2.185 2.895 4.74 1.274 7.642-.276.483-.405 1.072-.537 1.63-.966 4.043 1.882 7.42 6.006 7.011 2.525-.24 4.96-.961 6.79-2.831z"/></clipPath></defs><g><g><g><path fill="none" stroke="#ff931e" stroke-miterlimit="20" stroke-width="3" d="M39.542 387.82v0s61.267-70.02 258.2-105.03c196.93-35.01 280.078 122.535 328.217 126.91 48.139 4.377 231.94-100.653 363.228-96.277 131.287 4.377 223.189 118.159 341.347 122.535 118.159 4.376 210.06-157.545 301.96-170.673"/></g><g><path fill="none" stroke="#c1272d" stroke-miterlimit="20" stroke-width="2" d="M30.79 195.265v0s135.664 210.06 284.456 205.683c148.792-4.376 245.07-140.04 354.475-153.168 109.406-13.129 210.06 131.287 345.723 131.287 135.664 0 253.823-218.813 315.09-231.942 61.268-13.128 210.06 442.002 280.08 437.625"/></g><g><path fill="none" stroke="#ed1c24" stroke-miterlimit="20" d="M.156 300.295v0s236.318 74.396 310.714 48.138c74.396-26.257 196.93-83.148 240.693-83.148 43.762 0 205.683 118.158 245.07 118.158 39.386 0 179.425-109.406 236.316-113.782 56.891-4.376 170.675 61.267 240.694 48.139 70.02-13.129 262.575-43.763 284.456-87.525 21.881-43.764 91.9-61.268 91.9-61.268v0"/></g><g><path fill="none" stroke="#f7931e" stroke-miterlimit="20" d="M30.79 492.85v0S188.335 326.551 297.74 313.422c109.406-13.128 166.297 83.149 223.188 74.396 56.891-8.752 183.802-78.772 223.188-78.772 39.387 0 223.189-43.762 319.466-4.376 96.278 39.386 240.694-17.505 262.575-48.139 21.881-30.633 192.554 26.258 262.574 113.782"/></g><g><path fill="#f29100" d="M555.144 625.881c1.061-1.834 1.558-3.693.281-5.833-1.262-2.104-3.123-2.854-5.268-3.23-2.912-.514-4.36-2.362-5.29-4.994-1.47-4.17-3.005-8.317-4.719-12.392-3.916-9.324-9.644-17.463-16.661-24.718-1.365-1.41-2.78-2.797-4.2-4.202l26.944-19.734c4.594-3.364 3.667-10.425-1.608-12.57-11.515-4.684-31.167-5.143-47.648 4.125L142.837 65.928l-3.936 2.884 348.03 480.879c-13.806 12.912-19.294 31.784-18.299 44.173.453 5.676 6.905 8.69 11.499 5.326l26.925-19.72c.308.57.63 1.129.899 1.716 3.306 7.123 7.711 13.526 12.852 19.411 5.246 6.012 11.222 11.204 17.896 15.6 2.466 1.625 3.978 3.876 3.126 7.089-.149.536-.128 1.139-.117 1.713.063 4.155 3.66 6.722 7.554 5.306 2.387-.859 4.569-2.16 5.878-4.424z"/><path fill="none" stroke="#fff" stroke-miterlimit="20" stroke-width="6" d="M555.144 625.881c1.061-1.834 1.558-3.693.281-5.833-1.262-2.104-3.123-2.854-5.268-3.23-2.912-.514-4.36-2.362-5.29-4.994-1.47-4.17-3.005-8.317-4.719-12.392-3.916-9.324-9.644-17.463-16.661-24.718-1.365-1.41-2.78-2.797-4.2-4.202l26.944-19.734c4.594-3.364 3.667-10.425-1.608-12.57-11.515-4.684-31.167-5.143-47.648 4.125L142.837 65.928v0l-3.936 2.884v0l348.03 480.879c-13.806 12.912-19.294 31.784-18.299 44.173.453 5.676 6.905 8.69 11.499 5.326l26.925-19.72c.308.57.63 1.129.899 1.716 3.306 7.123 7.711 13.526 12.852 19.411 5.246 6.012 11.222 11.204 17.896 15.6 2.466 1.625 3.978 3.876 3.126 7.089-.149.536-.128 1.139-.117 1.713.063 4.155 3.66 6.722 7.554 5.306 2.387-.859 4.569-2.16 5.878-4.424z" clip-path="url(&quot;#kpjva&quot;)"/></g><g><path fill="#1d70b7" d="M977.082 37.43c-2.112-.17-4.004.18-5.387 2.253-1.358 2.043-1.235 4.047-.652 6.144.787 2.852-.26 4.953-2.236 6.924-3.133 3.12-6.218 6.288-9.16 9.587-6.737 7.544-11.622 16.215-15.157 25.669-.687 1.838-1.331 3.711-1.99 5.597L913.102 77.76c-5.012-2.702-10.989 1.17-10.658 6.855.72 12.41 8.753 30.352 24.205 41.248L648.716 650.39l4.295 2.315L937.61 131.769c17.594 6.915 36.992 3.76 47.75-2.465 4.93-2.848 4.879-9.97-.133-12.67l-29.38-15.836c.382-.523.749-1.054 1.164-1.55 5.01-6.046 8.898-12.775 12.002-19.948 3.173-7.32 5.293-14.947 6.393-22.863.407-2.925 1.79-5.258 5.057-5.87.547-.096 1.083-.374 1.597-.63 3.724-1.843 4.496-6.193 1.544-9.101-1.802-1.787-3.914-3.197-6.521-3.406z"/><path fill="none" stroke="#fff" stroke-miterlimit="20" stroke-width="4" d="M977.082 37.43c-2.112-.17-4.004.18-5.387 2.253-1.358 2.043-1.235 4.047-.652 6.144.787 2.852-.26 4.953-2.236 6.924-3.133 3.12-6.218 6.288-9.16 9.587-6.737 7.544-11.622 16.215-15.157 25.669-.687 1.838-1.331 3.711-1.99 5.597L913.102 77.76c-5.012-2.702-10.989 1.17-10.658 6.855.72 12.41 8.753 30.352 24.205 41.248L648.716 650.39v0l4.295 2.315v0L937.61 131.769c17.594 6.915 36.992 3.76 47.75-2.465 4.93-2.848 4.879-9.97-.133-12.67l-29.38-15.836c.382-.523.749-1.054 1.164-1.55 5.01-6.046 8.898-12.775 12.002-19.948 3.173-7.32 5.293-14.947 6.393-22.863.407-2.925 1.79-5.258 5.057-5.87.547-.096 1.083-.374 1.597-.63 3.724-1.843 4.496-6.193 1.544-9.101-1.802-1.787-3.914-3.197-6.521-3.406z" clip-path="url(&quot;#kpjvb&quot;)"/></g><g><path fill="#bd1622" d="M1396.426 648.035c1.482-1.514 2.423-3.193 1.715-5.583-.702-2.35-2.319-3.537-4.304-4.432-2.695-1.22-3.64-3.368-3.89-6.147-.392-4.406-.853-8.803-1.506-13.176-1.486-10.003-5.022-19.307-10.025-28.072-.974-1.704-2-3.397-3.03-5.11l30.99-12.453c5.284-2.123 6.132-9.193 1.552-12.576-9.998-7.389-28.925-12.697-47.187-7.795L1135.515 3.466l-4.528 1.82 218.2 552.048c-16.57 9.094-26.557 26.02-28.66 38.271-.966 5.612 4.54 10.13 9.823 8.006l30.968-12.443c.16.626.332 1.249.448 1.884 1.44 7.72 4.123 15.013 7.648 21.989 3.595 7.122 8.1 13.632 13.479 19.542 1.987 2.185 2.895 4.74 1.274 7.642-.276.483-.405 1.072-.537 1.63-.966 4.043 1.882 7.42 6.006 7.011 2.525-.24 4.96-.961 6.79-2.831z"/><path fill="none" stroke="#fff" stroke-miterlimit="20" stroke-width="4" d="M1396.426 648.035c1.482-1.514 2.423-3.193 1.715-5.583-.702-2.35-2.319-3.537-4.304-4.432-2.695-1.22-3.64-3.368-3.89-6.147-.392-4.406-.853-8.803-1.506-13.176-1.486-10.003-5.022-19.307-10.025-28.072-.974-1.704-2-3.397-3.03-5.11l30.99-12.453c5.284-2.123 6.132-9.193 1.552-12.576-9.998-7.389-28.925-12.697-47.187-7.795L1135.515 3.466v0l-4.528 1.82v0l218.2 552.048c-16.57 9.094-26.557 26.02-28.66 38.271-.966 5.612 4.54 10.13 9.823 8.006l30.968-12.443c.16.626.332 1.249.448 1.884 1.44 7.72 4.123 15.013 7.648 21.989 3.595 7.122 8.1 13.632 13.479 19.542 1.987 2.185 2.895 4.74 1.274 7.642-.276.483-.405 1.072-.537 1.63-.966 4.043 1.882 7.42 6.006 7.011 2.525-.24 4.96-.961 6.79-2.831z" clip-path="url(&quot;#kpjvc&quot;)"/></g></g></g></svg>