<svg xmlns="http://www.w3.org/2000/svg" width="322" height="94" viewBox="0 0 322 94"><g><g><g><g><path fill="#90999d" d="M321.367 69.276c-.395-.892-.948-1.582-2.09-1.688-1.125-.105-1.91.382-2.63 1.075-.982.944-2.065.978-3.291.607-1.95-.588-3.907-1.145-5.884-1.617-4.525-1.083-9.106-1.168-13.704-.537-.894.123-1.795.274-2.7.42V52.17c0-2.623-2.875-4.194-5.102-2.82-4.87 3.001-10.382 10.169-11.423 18.806L1.352 70.09v2.248l273.19 1.547c1.042 8.634 6.554 15.801 11.424 18.799 2.227 1.373 5.102-.2 5.102-2.82V74.512c.293.038.588.07.881.131 3.54.708 7.114.816 10.696.507a40.3 40.3 0 0 0 10.657-2.402c1.272-.476 2.522-.422 3.48.766.16.199.388.357.604.506 1.56 1.106 3.49.472 4.023-1.361.329-1.118.441-2.282-.042-3.383z"/></g></g><g><g><g><g><path fill="#d60812" d="M11.275 32.39V17.28h5.753c5.982 0 9.203 1.918 9.203 7.134 0 5.214-2.991 7.976-9.203 7.976zM0 58.314h11.275v-16.95h6.443c10.584 0 19.557-5.217 19.557-16.95 0-12.12-8.743-16.107-19.557-16.107H0z"/></g><g><path fill="#d60812" d="M61.057 50.489c-3.22 0-5.292-1.15-5.292-3.605 0-3.296 3.068-5.675 14.265-6.288v6.288c-2.684 2.073-5.599 3.605-8.973 3.605zm-16.107-2.76c0 6.442 4.833 11.506 12.502 11.506 4.909 0 9.664-2.302 13.5-5.219h.305l.845 4.298h9.203V36.53c0-11.656-6.519-17.18-17.18-17.18-6.519 0-12.578 2.147-17.793 5.139l3.988 7.363c4.294-2.147 7.9-3.528 11.58-3.528 5.14 0 7.747 2.07 8.13 5.522-18.023 1.073-25.08 5.369-25.08 13.883z"/></g><g><path fill="#d60812" d="M91.818 20.27h34.976v38.044H115.52V29.09h-12.425v29.224H91.818z"/></g><g><path fill="#d60812" d="M158.781 14.289c4.373 0 7.518-2.685 7.518-6.825 0-4.143-3.145-7.058-7.518-7.058-4.37 0-7.515 2.915-7.515 7.058 0 4.14 3.144 6.825 7.515 6.825zm-5.138 44.025h11.275V20.27H138.38v8.82h15.262z"/></g><g><path fill="#d60812" d="M201.661 50.028c-1.916 0-4.37-.688-6.518-2.53V32.083c2.377-2.454 4.602-3.528 7.056-3.528 4.755 0 6.98 3.453 6.98 10.278 0 7.823-3.298 11.196-7.518 11.196zm-17.793 22.397h11.275V61.304l-.537-6.212h.307c2.685 2.684 5.982 4.143 9.357 4.143 8.515 0 16.49-7.518 16.49-20.556 0-11.736-5.75-19.329-15.264-19.329-4.063 0-8.283 1.994-11.35 4.756h-.23l-.844-3.835h-9.204z"/></g><g><path fill="#d60812" d="M245.157 50.489c-3.222 0-5.292-1.15-5.292-3.605 0-3.296 3.068-5.675 14.266-6.288v6.288c-2.684 2.073-5.6 3.605-8.974 3.605zm-16.107-2.76c0 6.442 4.832 11.506 12.502 11.506 4.909 0 9.662-2.302 13.496-5.219h.31l.843 4.298h9.202V36.53c0-11.656-6.518-17.18-17.178-17.18-6.522 0-12.58 2.147-17.794 5.139l3.988 7.363c4.294-2.147 7.9-3.528 11.581-3.528 5.137 0 7.744 2.07 8.131 5.522-18.025 1.073-25.08 5.369-25.08 13.883z"/></g></g></g></g></g></g></svg>