<svg xmlns="http://www.w3.org/2000/svg" width="53" height="67" viewBox="0 0 53 67"><g><g><path fill="#fff" d="M19 44V24h13v20z"/></g><g><path fill="#fff" d="M25 67L2 40h46z"/></g><g><path fill="#fff" d="M38.686 20.872V.844h13.711V5.28h-8.411V9.1h7.21v4.437h-7.21v7.334zm-14.112-4.253h.185c.637 0 1.238-.087 1.803-.261a3.36 3.36 0 0 0 1.463-.91c.411-.43.74-1.026.986-1.786.247-.76.37-1.726.37-2.897 0-1.17-.123-2.126-.37-2.865-.246-.74-.575-1.315-.986-1.726a3.24 3.24 0 0 0-1.463-.847 6.825 6.825 0 0 0-1.803-.231h-.185zm-5.3 4.253V.844h5.762c1.438 0 2.753.185 3.944.554 1.192.37 2.219.956 3.082 1.757.862.8 1.535 1.828 2.018 3.08.482 1.254.724 2.764.724 4.53 0 1.767-.236 3.287-.709 4.56-.472 1.274-1.135 2.322-1.987 3.143a7.952 7.952 0 0 1-3.004 1.818c-1.15.39-2.404.586-3.76.586zM6.088 10.334H8.06c1.048 0 1.823-.247 2.326-.74.504-.493.755-1.191.755-2.095 0-.904-.267-1.54-.8-1.91-.535-.37-1.295-.555-2.28-.555H6.086zm-5.3 10.538V.844h7.519c1.068 0 2.09.108 3.065.323.976.216 1.829.586 2.558 1.11a5.611 5.611 0 0 1 1.74 2.064c.432.852.648 1.905.648 3.158 0 1.233-.221 2.29-.663 3.174a6.142 6.142 0 0 1-1.772 2.172 7.642 7.642 0 0 1-2.557 1.263c-.965.278-1.972.416-3.02.416H6.088v6.348z"/></g></g></svg>